<mxfile host="app.diagrams.net" modified="2023-11-05T03:12:05.501Z" agent="Mozilla/5.0 (Macintosh; Intel Mac OS X 10_15_7) AppleWebKit/537.36 (KHTML, like Gecko) Chrome/116.0.0.0 Safari/537.36" version="22.0.8" etag="C9FBRo9-PLEgf_WR5Yx4" type="github">
  <diagram name="Page-1" id="IjcZlmRYJqNTJ3G_bok_">
    <mxGraphModel>
      <root>
        <mxCell id="0" />
        <mxCell id="1" parent="0" />
      </root>
    </mxGraphModel>
  </diagram>
</mxfile>
